<?xml version="1.0" encoding="UTF-8"?>
<svg id="Layer_17" data-name="Layer 17" xmlns="http://www.w3.org/2000/svg" xmlns:xlink="http://www.w3.org/1999/xlink" viewBox="0 0 306.9 153.68">
  <defs>
    <style>
      .cls-1 {
        fill: url(#linear-gradient);
        stroke-width: 0px;
      }
    </style>
    <linearGradient id="linear-gradient" x1="0" y1="76.84" x2="306.9" y2="76.84" gradientUnits="userSpaceOnUse">
      <stop offset="0" stop-color="#0065c9"/>
      <stop offset=".07" stop-color="#0b73b9"/>
      <stop offset=".24" stop-color="#259397"/>
      <stop offset=".42" stop-color="#38ab7d"/>
      <stop offset=".61" stop-color="#46bd6a"/>
      <stop offset=".79" stop-color="#4fc75f"/>
      <stop offset="1" stop-color="#52cb5c"/>
    </linearGradient>
  </defs>
  <path class="cls-1" d="M72.88,70.13l-3.88,7.42-8.16-8.95,12.04,1.53ZM82.18,71.21l-3.8-.44-5.68,10.86,3.08,3.37.8.89c2.98-5.8,5.41-10.56,7.4-14.47l-1.8-.21ZM51.32,89.9c-.84-.44-1.64-.56-2.41-.38-.77.19-1.44.71-2.04,1.57-.34.51-1.19,2.06-2.54,4.64l-1.65,3.15,6.28,3.29,1.88-3.6c1.12-2.13,1.79-3.48,2-4.03.38-1,.44-1.9.18-2.72-.25-.82-.82-1.46-1.7-1.92ZM63.26,94.87c-.81-.42-1.61-.59-2.38-.49-.78.1-1.49.45-2.14,1.07-.65.61-1.63,2.16-2.94,4.66l-2.32,4.42,7.27,3.81,2.66-5.08c1.03-1.98,1.63-3.26,1.8-3.85.28-.89.26-1.75-.04-2.56-.31-.81-.95-1.47-1.91-1.98ZM93.09,52.02c-.2,1.11-.47,2.18-6.12,13.44l-2.18-.22-28.73-2.92-3.04,5.8,19.91,22.82.67.77c-.76,1.46-1.54,2.98-2.35,4.56-.01-.12-.02-.24-.04-.36-.05-.35-.11-.69-.21-1.02-.26-.99-.71-1.92-1.36-2.8-.86-1.19-1.92-2.1-3.15-2.75-1.57-.82-3.17-1.09-4.79-.81-1.63.28-3.12,1.12-4.47,2.53.09-1.45-.22-2.8-.93-4.04-.7-1.24-1.69-2.2-2.96-2.86-1.18-.62-2.38-.9-3.62-.83-1.23.06-2.35.36-3.36.89-1,.54-1.87,1.29-2.6,2.25-.74.96-1.66,2.52-2.79,4.67l-5.68,10.86,25.55,13.38.43.22c-1.31,2.53-2.68,5.17-4.1,7.91.03-.35.05-.68.06-1.01.05-1.73-.11-3.23-.48-4.49l-10.82-5.67-6.19,11.83,4.58,2.39,3.28-6.28,3.45,1.8c.21,1.17.24,2.45.08,3.84-.15,1.39-.53,2.66-1.13,3.81-1.21,2.32-3,3.78-5.37,4.37-2.36.58-5.15.03-8.38-1.65-2.99-1.57-4.87-3.45-5.65-5.67-.78-2.2-.54-4.51.71-6.9.83-1.59,1.91-2.7,3.23-3.36,1.33-.65,2.76-.82,4.29-.5l1.83-5.98c-2.77-.76-5.37-.57-7.78.59-2.4,1.15-4.49,3.42-6.26,6.79-1.35,2.6-2.04,5-2.05,7.21-.02,2.9.76,5.52,2.34,7.86,1.58,2.34,3.78,4.24,6.61,5.73,2.6,1.36,5.3,2.09,8.07,2.19,2.74.1,5.26-.59,7.54-2.05.02-.01.05-.03.07-.04.16-.1.31-.21.46-.32-2.26,4.37-4.65,8.96-7.16,13.8-.12,0-.24-.03-.29.02l-.06.06s0,0,0,.02l.35-.08s.01-.01.01-.02h.03c-.38,1.25-1.27,2.01-2.68,1.86-2.6-.29-5.22-.61-7.76-1.21-9.8-2.29-19.16-5.77-27.74-11.11-4.26-2.66-5.01-3.09-3.88-8.55,2.15-10.49,4.17-21,7.22-31.29,3.66-12.39,8.44-24.34,13.41-36.25.17-.41.34-.81.5-1.22,4.07-9.8,7.85-19.73,11.83-29.58.55-1.37,1.58-2.55,2.05-3.93.81-2.37,2.15-3.47,4.78-3.19,1.59.18,2.8-.91,3.53-2.31.59-1.15,1.04-2.37,1.57-3.54,1.45-3.17,3.93-4.78,7.41-4.79,1.45,0,2.91.03,4.35.16.82.07,1.22-.1,1.54-.94,1.3-3.48,2.76-6.89,4.04-10.37,1-2.76,2.63-4.77,5.56-5.54h2.11c5.53,2.17,11.05,4.36,16.58,6.5,3.94,1.53,5.48,5.91,3.83,9.61-1.74,3.88-3.38,7.81-5.06,11.7,1.38,1.32,2.73,2.57,4.03,3.86,2.52,2.49,3.06,5.45,2.01,8.75-.39,1.23-.8,2.45-1.29,3.64-.72,1.73-.11,3.03,1.14,4.2.42.4.97.8,1.14,1.31.27.76.48,1.67.34,2.45ZM80.87,30.49c-.98-1.03-2.37-1.63-3.71-1.36,0,.08-.02.16,0,.23.07.18.14.36.23.54.88,1.66.95,3.32.16,5.07-.48,1.06-.83,2.19-1.13,3.32-.67,2.47-.24,4.64,1.81,6.37,1.37,1.15,1.37,1.3.56,3.04,1.59.19,2.99,1.25,4.81.36-.52-.67-.94-1.32-1.47-1.85-1.75-1.73-2.36-3.73-1.57-6.1.23-.71.51-1.4.71-2.11.34-1.24.79-2.48.94-3.74.16-1.41-.41-2.79-1.34-3.77ZM70.84,23.81c1.22.25,2.3.43,3.35.69.87.2,1.3-.17,1.59-.95.77-2,1.58-3.99,2.38-5.98.72-1.8,1.46-3.6,2.22-5.47-1.4-.58-2.7-1.11-4.12-1.69-1.83,4.53-3.61,8.92-5.42,13.4ZM62.15,20.91c5.58,3.45,11.56,5.89,17.92,7.22-5.97-2.41-11.95-4.81-17.92-7.22ZM66.03,38.43l.86-.36c.69-.29,1.2-.57,1.53-.85.34-.29.58-.58.71-.9.12-.26.15-.55.12-.87-.04-.32-.15-.6-.33-.84-.19-.24-.44-.43-.76-.57-.52-.23-1.02-.25-1.49-.07-.47.19-.85.55-1.12,1.11l.98.43c.13-.27.3-.46.51-.55.22-.1.43-.1.64,0,.22.09.36.23.44.43.07.19.07.38-.02.59-.08.19-.24.38-.48.57-.24.18-.64.39-1.2.62l-2.36.95-.21.48,3.65,1.59.41-.93-1.88-.82ZM60.92,34.24c-.31.69-.46,1.26-.47,1.7,0,.44.08.81.27,1.11.19.3.48.54.88.71.39.18.76.23,1.1.16.34-.07.67-.27,1-.59.32-.32.63-.83.94-1.53.3-.69.46-1.27.48-1.72.01-.45-.08-.84-.27-1.15-.2-.31-.49-.54-.87-.71-.59-.26-1.16-.22-1.7.11-.49.31-.94.94-1.36,1.91ZM56.81,32.45c-.3.69-.46,1.26-.47,1.7,0,.44.08.81.27,1.11.19.31.48.54.88.72.4.17.76.22,1.1.15.34-.07.68-.26,1-.59.32-.32.64-.83.94-1.53.3-.69.46-1.26.48-1.72.02-.45-.07-.83-.27-1.14-.19-.31-.48-.55-.87-.72-.59-.26-1.16-.22-1.7.11-.48.31-.94.94-1.36,1.91ZM51.53,33.22l3.65,1.59.4-.93-1.87-.81.86-.37c.69-.28,1.2-.57,1.53-.85.34-.29.57-.58.71-.9.11-.26.15-.55.12-.87-.04-.32-.15-.59-.34-.84-.18-.24-.44-.43-.76-.57-.51-.22-1.01-.24-1.48-.06-.47.18-.85.55-1.12,1.1l.98.43c.13-.27.3-.45.51-.55.21-.1.43-.1.64-.01.21.1.36.24.44.43.07.19.07.39-.02.59s-.25.39-.48.57c-.24.19-.64.39-1.21.62l-2.35.95-.21.48ZM48.77,39.17c-.27-.12-.54-.18-.82-.16-.27.02-.58.25-.75.47-.26.33-.43.74-.62,1.13-3.26,6.89-6.44,13.82-9.77,20.67-10.36,21.32-18.68,43.4-24.69,66.34-.98,3.73-1.84,7.5-2.75,11.25.1.03.2.07.3.11.15-.31.32-.6.44-.91,3.15-8,6.27-16.01,9.45-23.99,4.82-12.09,9.41-24.27,14.58-36.2,5.13-11.83,10.86-23.39,16.32-35.08.56-1.19-.44-3.07-1.69-3.63ZM86.29,51.79c-2.67-.9-5.33-1.82-7.97-2.78-12.79-4.63-25.28-9.93-37.54-15.86.29.19.57.41.88.56,2.63,1.27,5.23,2.6,7.87,3.84,1.03.49,2.07.97,3.11,1.42,10.67,4.64,21.23,9.58,32.53,12.6.37.1.75.15,1.12.22ZM59.48,31.39c-.17-.07-.34-.08-.52-.03-.18.05-.36.2-.55.43-.18.23-.38.61-.61,1.12-.29.66-.41,1.16-.36,1.48s.2.54.45.65c.24.11.49.07.74-.11.3-.21.6-.66.89-1.34.3-.7.43-1.21.39-1.54s-.18-.55-.43-.66ZM63.59,33.18c-.17-.07-.35-.08-.52-.03-.18.05-.36.19-.55.43-.18.23-.39.61-.61,1.12-.29.66-.41,1.16-.36,1.48.04.32.19.54.45.65.24.11.48.07.73-.11.3-.21.6-.66.9-1.35.3-.69.43-1.2.39-1.53s-.19-.55-.43-.66ZM42.21,151.82l-.06.06s0,0,0,.02l.35-.08s.01-.01.01-.02c-.12,0-.24-.03-.29.02ZM120.12,63.15v-3.62h9.35v8.55c-.91.88-2.22,1.65-3.95,2.32-1.72.67-3.47,1-5.24,1-2.25,0-4.21-.47-5.88-1.41-1.67-.94-2.92-2.29-3.76-4.04-.84-1.75-1.26-3.66-1.26-5.72,0-2.24.47-4.22,1.41-5.96s2.31-3.07,4.12-4c1.38-.71,3.09-1.07,5.14-1.07,2.67,0,4.75.56,6.25,1.68,1.5,1.12,2.46,2.66,2.89,4.64l-4.31.81c-.3-1.05-.87-1.89-1.71-2.5-.83-.61-1.88-.92-3.13-.92-1.89,0-3.4.6-4.52,1.8-1.12,1.2-1.68,2.98-1.68,5.35,0,2.55.57,4.46,1.7,5.73,1.13,1.28,2.62,1.91,4.45,1.91.91,0,1.82-.18,2.73-.54.91-.36,1.7-.79,2.35-1.29v-2.72h-4.97ZM132.41,71.05v-21.47h15.92v3.63h-11.59v4.76h10.78v3.62h-10.78v5.85h12v3.62h-16.33ZM150.49,60.44c0-2.19.33-4.02.98-5.51.49-1.09,1.15-2.07,2-2.94.84-.87,1.77-1.51,2.78-1.93,1.34-.57,2.88-.85,4.63-.85,3.16,0,5.7.98,7.6,2.94,1.9,1.96,2.85,4.69,2.85,8.19s-.94,6.18-2.83,8.14c-1.88,1.96-4.4,2.94-7.56,2.94s-5.73-.97-7.62-2.92c-1.88-1.95-2.83-4.63-2.83-8.05ZM154.96,60.3c0,2.43.56,4.28,1.69,5.53,1.12,1.26,2.55,1.88,4.28,1.88s3.15-.62,4.25-1.87c1.11-1.25,1.66-3.11,1.66-5.6s-.54-4.3-1.62-5.51c-1.08-1.21-2.51-1.82-4.3-1.82s-3.23.61-4.32,1.84c-1.09,1.23-1.64,3.07-1.64,5.54ZM173.67,71.05v-21.47h9.12c2.29,0,3.96.19,5,.58,1.04.39,1.87,1.07,2.5,2.06s.94,2.12.94,3.38c0,1.61-.47,2.94-1.42,3.99-.95,1.05-2.36,1.71-4.25,1.99.94.55,1.71,1.15,2.32,1.8.61.65,1.43,1.82,2.47,3.49l2.62,4.19h-5.19l-3.13-4.67c-1.11-1.67-1.88-2.72-2.29-3.16-.41-.43-.85-.73-1.3-.89-.46-.16-1.19-.24-2.18-.24h-.88v8.96h-4.34ZM178.01,58.66h3.21c2.08,0,3.38-.09,3.9-.26s.92-.48,1.22-.91.44-.97.44-1.61c0-.72-.19-1.3-.58-1.75-.39-.44-.93-.72-1.63-.84-.35-.05-1.41-.07-3.16-.07h-3.38v5.45ZM204.26,63.15v-3.62h9.35v8.55c-.91.88-2.22,1.65-3.95,2.32-1.72.67-3.47,1-5.24,1-2.25,0-4.21-.47-5.88-1.41-1.67-.94-2.92-2.29-3.76-4.04-.84-1.75-1.26-3.66-1.26-5.72,0-2.24.47-4.22,1.41-5.96s2.31-3.07,4.12-4c1.38-.71,3.09-1.07,5.14-1.07,2.67,0,4.75.56,6.25,1.68,1.5,1.12,2.46,2.66,2.89,4.64l-4.31.81c-.3-1.05-.87-1.89-1.71-2.5-.83-.61-1.88-.92-3.13-.92-1.89,0-3.4.6-4.52,1.8-1.12,1.2-1.68,2.98-1.68,5.35,0,2.55.57,4.46,1.7,5.73,1.13,1.28,2.62,1.91,4.45,1.91.91,0,1.82-.18,2.73-.54.91-.36,1.7-.79,2.35-1.29v-2.72h-4.97ZM216.42,71.05v-21.47h4.34v21.47h-4.34ZM243.2,71.05h-4.72l-1.88-4.88h-8.58l-1.77,4.88h-4.6l8.36-21.47h4.59l8.6,21.47ZM235.22,62.55l-2.96-7.97-2.9,7.97h5.86ZM244.5,71.05v-21.47h4.22l8.79,14.34v-14.34h4.03v21.47h-4.35l-8.66-14v14h-4.03ZM111.67,76.52h8.58c1.7,0,2.97.07,3.8.21.84.14,1.58.44,2.24.88.66.45,1.21,1.05,1.65,1.79.44.75.66,1.58.66,2.51,0,1.01-.27,1.93-.81,2.77-.54.84-1.28,1.47-2.21,1.89,1.31.38,2.31,1.03,3.02,1.95s1.05,2,1.05,3.24c0,.98-.23,1.93-.68,2.85-.45.92-1.07,1.66-1.86,2.21-.79.55-1.76.89-2.91,1.02-.72.08-2.46.13-5.23.15h-7.31v-21.47ZM116.01,80.09v4.96h2.84c1.69,0,2.74-.02,3.15-.07.74-.09,1.32-.34,1.75-.77s.64-.98.64-1.68-.18-1.2-.55-1.62c-.37-.42-.91-.67-1.63-.76-.43-.05-1.67-.07-3.71-.07h-2.49ZM116.01,88.63v5.74h4.01c1.56,0,2.55-.04,2.97-.13.64-.12,1.17-.4,1.57-.86.4-.45.61-1.06.61-1.82,0-.64-.16-1.19-.47-1.64s-.76-.78-1.36-.98c-.59-.21-1.87-.31-3.84-.31h-3.5ZM151.64,97.99h-4.72l-1.88-4.88h-8.58l-1.77,4.88h-4.6l8.37-21.47h4.58l8.6,21.47ZM143.65,89.5l-2.96-7.97-2.9,7.97h5.86ZM152.9,97.99v-21.47h9.13c2.29,0,3.96.19,5,.58,1.04.39,1.87,1.07,2.5,2.06s.94,2.11.94,3.38c0,1.61-.47,2.94-1.42,3.99-.95,1.05-2.36,1.71-4.25,1.98.94.55,1.71,1.15,2.32,1.8.61.65,1.43,1.82,2.47,3.49l2.62,4.19h-5.19l-3.13-4.67c-1.11-1.67-1.88-2.72-2.29-3.16-.41-.43-.84-.73-1.3-.89-.46-.16-1.19-.24-2.18-.24h-.88v8.96h-4.34ZM157.24,85.6h3.21c2.08,0,3.38-.09,3.9-.26s.92-.48,1.21-.91.44-.97.44-1.61c0-.72-.19-1.31-.58-1.75-.39-.45-.93-.73-1.63-.84-.35-.05-1.41-.07-3.16-.07h-3.38v5.45ZM178.33,97.99v-17.84h-6.37v-3.63h17.06v3.63h-6.36v17.84h-4.34ZM190.78,97.99v-21.47h15.92v3.63h-11.59v4.76h10.78v3.62h-10.78v5.84h12v3.62h-16.33ZM209.78,97.99v-21.47h4.22l8.79,14.34v-14.34h4.03v21.47h-4.35l-8.66-14v14h-4.03ZM230.34,76.52h7.93c1.79,0,3.15.14,4.09.41,1.26.37,2.34,1.03,3.24,1.98s1.58,2.11,2.05,3.48c.47,1.37.7,3.06.7,5.07,0,1.77-.22,3.29-.66,4.57-.54,1.56-1.3,2.83-2.3,3.79-.75.73-1.77,1.3-3.05,1.71-.96.3-2.24.46-3.84.46h-8.16v-21.47ZM234.67,80.15v14.22h3.24c1.21,0,2.08-.07,2.62-.21.7-.18,1.29-.47,1.75-.89.46-.42.84-1.11,1.14-2.07.29-.96.44-2.27.44-3.93s-.15-2.94-.44-3.82-.7-1.58-1.23-2.08-1.2-.83-2.01-1.01c-.61-.14-1.79-.21-3.56-.21h-1.95ZM250.97,97.99v-21.47h15.92v3.63h-11.59v4.76h10.78v3.62h-10.78v5.84h12v3.62h-16.33ZM269.94,97.99v-21.47h9.13c2.29,0,3.96.19,5,.58,1.04.39,1.87,1.07,2.5,2.06s.94,2.11.94,3.38c0,1.61-.47,2.94-1.42,3.99-.95,1.05-2.36,1.71-4.25,1.98.94.55,1.71,1.15,2.32,1.8.61.65,1.43,1.82,2.47,3.49l2.62,4.19h-5.19l-3.13-4.67c-1.11-1.67-1.88-2.72-2.29-3.16-.41-.43-.84-.73-1.3-.89-.46-.16-1.19-.24-2.18-.24h-.88v8.96h-4.34ZM274.28,85.6h3.21c2.08,0,3.38-.09,3.9-.26s.92-.48,1.21-.91.44-.97.44-1.61c0-.72-.19-1.31-.58-1.75-.39-.45-.93-.73-1.63-.84-.35-.05-1.41-.07-3.16-.07h-3.38v5.45ZM289.44,91.01l4.22-.41c.25,1.42.77,2.46,1.54,3.12.78.66,1.82,1,3.14,1,1.4,0,2.45-.29,3.16-.89.71-.59,1.06-1.28,1.06-2.07,0-.51-.15-.94-.45-1.3-.3-.36-.82-.67-1.56-.93-.51-.18-1.67-.49-3.47-.94-2.32-.58-3.96-1.29-4.89-2.12-1.32-1.18-1.98-2.62-1.98-4.32,0-1.09.31-2.12.93-3.07.62-.95,1.51-1.68,2.68-2.18,1.17-.5,2.58-.75,4.23-.75,2.7,0,4.72.59,6.09,1.77,1.36,1.18,2.08,2.76,2.15,4.73l-4.34.19c-.19-1.1-.58-1.9-1.19-2.38-.61-.48-1.53-.72-2.75-.72s-2.25.26-2.96.78c-.46.33-.69.78-.69,1.33,0,.51.21.94.64,1.3.55.46,1.88.94,3.98,1.44s3.67,1.01,4.68,1.55c1.01.53,1.8,1.26,2.37,2.18.57.92.86,2.06.86,3.42,0,1.23-.34,2.38-1.03,3.46s-1.65,1.87-2.9,2.4c-1.25.52-2.81.78-4.67.78-2.71,0-4.8-.63-6.26-1.88-1.46-1.25-2.32-3.08-2.61-5.49ZM131.14,124.94h-4.72l-1.88-4.88h-8.58l-1.77,4.88h-4.6l8.36-21.47h4.59l8.6,21.47ZM123.16,116.44l-2.96-7.97-2.9,7.97h5.86ZM131.29,117.95l4.22-.41c.25,1.42.77,2.46,1.54,3.12.78.66,1.82,1,3.14,1,1.4,0,2.45-.29,3.16-.89.71-.59,1.06-1.28,1.06-2.07,0-.51-.15-.94-.45-1.3-.3-.36-.82-.67-1.56-.93-.51-.18-1.66-.49-3.47-.94-2.32-.58-3.96-1.29-4.89-2.12-1.32-1.18-1.98-2.62-1.98-4.32,0-1.09.31-2.12.93-3.07.62-.95,1.51-1.68,2.68-2.18,1.17-.5,2.58-.75,4.23-.75,2.7,0,4.72.59,6.09,1.77,1.36,1.18,2.08,2.76,2.15,4.73l-4.34.19c-.19-1.1-.58-1.9-1.19-2.38-.61-.48-1.53-.72-2.75-.72s-2.25.26-2.96.78c-.46.33-.69.78-.69,1.33,0,.51.21.94.64,1.3.55.46,1.88.94,3.98,1.44s3.67,1.01,4.68,1.55c1.01.53,1.8,1.26,2.37,2.18.57.92.86,2.06.86,3.42,0,1.23-.34,2.38-1.03,3.46s-1.65,1.87-2.9,2.4c-1.25.52-2.81.78-4.67.78-2.71,0-4.8-.63-6.25-1.88-1.46-1.25-2.32-3.08-2.61-5.49ZM150.25,117.95l4.22-.41c.25,1.42.77,2.46,1.54,3.12.78.66,1.82,1,3.14,1,1.4,0,2.45-.29,3.16-.89.71-.59,1.06-1.28,1.06-2.07,0-.51-.15-.94-.45-1.3-.3-.36-.82-.67-1.56-.93-.51-.18-1.67-.49-3.47-.94-2.32-.58-3.96-1.29-4.89-2.12-1.32-1.18-1.98-2.62-1.98-4.32,0-1.09.31-2.12.93-3.07.62-.95,1.51-1.68,2.68-2.18,1.17-.5,2.58-.75,4.23-.75,2.7,0,4.72.59,6.09,1.77,1.36,1.18,2.08,2.76,2.15,4.73l-4.34.19c-.19-1.1-.58-1.9-1.19-2.38-.61-.48-1.53-.72-2.75-.72s-2.25.26-2.96.78c-.46.33-.69.78-.69,1.33,0,.51.21.94.64,1.3.55.46,1.88.94,3.98,1.44s3.67,1.01,4.68,1.55c1.01.53,1.8,1.26,2.37,2.18.57.92.86,2.06.86,3.42,0,1.23-.34,2.38-1.03,3.46s-1.65,1.87-2.9,2.4c-1.25.52-2.81.78-4.67.78-2.71,0-4.8-.63-6.26-1.88-1.46-1.25-2.32-3.08-2.61-5.49ZM169.43,114.33c0-2.19.33-4.02.98-5.51.49-1.09,1.15-2.08,2-2.95.84-.87,1.77-1.51,2.78-1.93,1.34-.57,2.88-.85,4.63-.85,3.16,0,5.7.98,7.6,2.95,1.9,1.96,2.85,4.69,2.85,8.19s-.94,6.18-2.83,8.14c-1.88,1.96-4.4,2.94-7.56,2.94s-5.73-.97-7.62-2.92c-1.88-1.95-2.83-4.63-2.83-8.05ZM173.9,114.19c0,2.43.56,4.28,1.69,5.53,1.12,1.26,2.55,1.88,4.28,1.88s3.15-.62,4.25-1.87c1.11-1.25,1.66-3.11,1.66-5.6s-.54-4.3-1.62-5.51c-1.08-1.21-2.51-1.82-4.3-1.82s-3.23.61-4.32,1.84c-1.09,1.23-1.64,3.07-1.64,5.54ZM206.34,117.04l4.2,1.33c-.64,2.34-1.72,4.08-3.21,5.22-1.5,1.14-3.4,1.71-5.71,1.71-2.85,0-5.2-.97-7.03-2.92-1.84-1.95-2.75-4.61-2.75-7.99,0-3.57.92-6.35,2.77-8.33,1.85-1.98,4.27-2.97,7.28-2.97,2.63,0,4.76.78,6.4,2.33.98.92,1.71,2.24,2.2,3.96l-4.29,1.03c-.25-1.11-.79-1.99-1.59-2.64-.81-.64-1.79-.97-2.94-.97-1.59,0-2.88.57-3.88,1.71-.99,1.14-1.49,2.99-1.49,5.55,0,2.71.49,4.65,1.46,5.8s2.25,1.73,3.81,1.73c1.15,0,2.14-.37,2.97-1.1s1.43-1.88,1.79-3.46ZM213.08,124.94v-21.47h4.34v21.47h-4.34ZM239.86,124.94h-4.72l-1.88-4.88h-8.58l-1.77,4.88h-4.6l8.37-21.47h4.58l8.6,21.47ZM231.88,116.44l-2.96-7.97-2.9,7.97h5.86ZM243.72,124.94v-17.84h-6.37v-3.63h17.07v3.63h-6.36v17.84h-4.34ZM256.03,124.94v-21.47h4.34v21.47h-4.34ZM262.56,114.33c0-2.19.33-4.02.98-5.51.49-1.09,1.15-2.08,2-2.95.84-.87,1.77-1.51,2.78-1.93,1.34-.57,2.88-.85,4.63-.85,3.16,0,5.7.98,7.6,2.95,1.9,1.96,2.85,4.69,2.85,8.19s-.94,6.18-2.83,8.14c-1.88,1.96-4.4,2.94-7.56,2.94s-5.73-.97-7.62-2.92c-1.88-1.95-2.83-4.63-2.83-8.05ZM267.03,114.19c0,2.43.56,4.28,1.68,5.53,1.12,1.26,2.55,1.88,4.28,1.88s3.15-.62,4.26-1.87c1.11-1.25,1.66-3.11,1.66-5.6s-.54-4.3-1.62-5.51c-1.08-1.21-2.51-1.82-4.3-1.82s-3.23.61-4.32,1.84c-1.09,1.23-1.64,3.07-1.64,5.54ZM285.77,124.94v-21.47h4.22l8.79,14.34v-14.34h4.03v21.47h-4.35l-8.66-14v14h-4.03Z"/>
</svg>